<svg width="34" height="42" viewBox="0 0 34 42" fill="none" xmlns="http://www.w3.org/2000/svg">
<rect y="4.5752" width="34" height="34" fill="#FFF7F7"/>
<path d="M16.1303 16.8381V28.0164H15.2275L7.43063 18.1513V26.4899L9.15416 27.3598L8.82587 28.0164H4.98487V27.5076L6.52783 26.2929V16.674L4.82073 15.7548L5.14902 15.0982H7.62761L15.2275 24.7171V16.6083L13.5204 15.7548L13.8487 15.0982H17.6897V15.6235L16.1303 16.8381ZM26.5867 25.0946C26.5867 24.7554 26.45 24.4381 26.1764 24.1426C25.9028 23.8471 25.5581 23.579 25.1423 23.3383C24.7374 23.0866 24.1848 22.7802 23.4844 22.4191C22.6527 21.9813 21.9852 21.6093 21.4818 21.3029C20.9785 20.9855 20.5462 20.6135 20.1851 20.1867C19.8349 19.7599 19.6598 19.2894 19.6598 18.775C19.6598 18.2279 19.8896 17.6424 20.3492 17.0187C20.8088 16.384 21.3669 15.8533 22.0235 15.4265C22.691 14.9888 23.3038 14.7699 23.8619 14.7699C24.5404 14.7699 25.3283 14.852 26.2256 15.0161C27.123 15.1803 27.7795 15.3554 28.1954 15.5414V18.7258H27.5716C27.0354 17.8394 26.4445 17.15 25.7989 16.6576C25.1642 16.1651 24.4966 15.9189 23.7963 15.9189C23.1725 15.9189 22.6746 16.1159 22.3026 16.5098C21.9414 16.8928 21.7609 17.3962 21.7609 18.02C21.7609 18.3811 21.8977 18.7203 22.1712 19.0377C22.4558 19.3441 22.8005 19.6177 23.2054 19.8584C23.6212 20.0992 24.1957 20.411 24.9289 20.794C25.7387 21.1989 26.3952 21.56 26.8986 21.8774C27.402 22.1838 27.8233 22.5449 28.1625 22.9607C28.5127 23.3656 28.6878 23.8252 28.6878 24.3396C28.6878 24.8867 28.4416 25.4776 27.9492 26.1123C27.4567 26.7361 26.8548 27.2668 26.1436 27.7045C25.4432 28.1313 24.803 28.3447 24.2231 28.3447C23.5118 28.3447 22.6637 28.2626 21.6788 28.0985C20.7049 27.9343 20.0045 27.7593 19.5778 27.5732V24.3888H20.2015C20.7596 25.2752 21.3943 25.9646 22.1056 26.457C22.8169 26.9495 23.5501 27.1957 24.3051 27.1957C24.7538 27.1957 25.1532 27.0972 25.5034 26.9002C25.8536 26.7033 26.1217 26.4461 26.3077 26.1287C26.4937 25.8005 26.5867 25.4558 26.5867 25.0946Z" fill="#8F00FF"/>
</svg>
