<svg width="58" height="45" viewBox="0 0 58 45" fill="none" xmlns="http://www.w3.org/2000/svg">
<path fill-rule="evenodd" clip-rule="evenodd" d="M2.84033 35.8116C2.67867 35.0673 2.59352 34.2945 2.59352 33.5018C2.59352 27.5198 7.44292 22.6704 13.425 22.6704C19.407 22.6704 24.2564 27.5198 24.2564 33.5018C24.2564 39.4839 19.407 44.3333 13.425 44.3333C10.5333 44.3333 7.90627 43.2001 5.96374 41.3536L15.9566 35.6101L12.7866 30.0948L2.84033 35.8116ZM2.84033 35.8116L0 37.4441L3.16999 42.9594L5.96374 41.3536C4.42024 39.8865 3.3089 37.9689 2.84033 35.8116Z" fill="black"/>
<path d="M2.01477 21.1591V0H24.1814L13.0981 10.704L23.9175 21.1591H2.01477Z" fill="black"/>
<rect x="26.1965" width="22.1667" height="6.04545" fill="black"/>
<rect x="26.1965" y="15.113" width="22.1667" height="6.04545" fill="black"/>
<rect x="26.1965" y="7.55688" width="22.1667" height="6.04545" fill="black"/>
<rect x="26.1965" y="44.333" width="21.1591" height="10.5795" transform="rotate(-90 26.1965 44.333)" fill="black"/>
<rect x="38.2875" y="44.333" width="10.0758" height="10.0758" transform="rotate(-90 38.2875 44.333)" fill="black"/>
</svg>
