<svg width="80" height="80" viewBox="0 0 80 80" fill="none" xmlns="http://www.w3.org/2000/svg">
<rect width="80" height="80" rx="8" fill="white"/>
<g clip-path="url(#clip0_9_2745)">
<path d="M8.47164 62.4033C7.28568 62.4033 6.14831 61.9322 5.30971 61.0936C4.47112 60.255 4 59.1176 4 57.9317V46.1406C4 44.9547 4.47112 43.8173 5.30971 42.9787C6.14831 42.1401 7.28568 41.669 8.47164 41.669C9.65759 41.669 10.795 42.1401 11.6336 42.9787C12.4722 43.8173 12.9433 44.9547 12.9433 46.1406V57.9317C12.9433 59.1176 12.4722 60.255 11.6336 61.0936C10.795 61.9322 9.65759 62.4033 8.47164 62.4033ZM26.1433 61.9735V41.5556C26.1417 40.3707 25.6699 39.2348 24.8315 38.3975C23.993 37.5602 22.8566 37.0899 21.6716 37.0899C20.4857 37.0899 19.3483 37.561 18.5097 38.3996C17.6711 39.2382 17.2 40.3756 17.2 41.5615V61.9795C17.2 63.1654 17.6711 64.3028 18.5097 65.1414C19.3483 65.98 20.4857 66.4511 21.6716 66.4511C22.2594 66.4511 22.8413 66.3352 23.3842 66.1101C23.9272 65.885 24.4204 65.5551 24.8357 65.1393C25.251 64.7234 25.5802 64.2298 25.8046 63.6865C26.029 63.1433 26.1441 62.5612 26.1433 61.9735ZM39.3493 66.4929V37.2929C39.3493 36.1069 38.8781 34.9695 38.0395 34.131C37.201 33.2924 36.0636 32.8212 34.8776 32.8212C33.6917 32.8212 32.5543 33.2924 31.7157 34.131C30.8771 34.9695 30.406 36.1069 30.406 37.2929V66.4929C30.406 67.6788 30.8771 68.8162 31.7157 69.6548C32.5543 70.4934 33.6917 70.9645 34.8776 70.9645C36.0636 70.9645 37.201 70.4934 38.0395 69.6548C38.8781 68.8162 39.3493 67.6788 39.3493 66.4929ZM52.5493 70.672V32.6242C52.5493 31.4383 52.0781 30.3009 51.2395 29.4623C50.4009 28.6237 49.2636 28.1526 48.0776 28.1526C46.8917 28.1526 45.7543 28.6237 44.9157 29.4623C44.0771 30.3009 43.606 31.4383 43.606 32.6242V70.678C43.606 71.8639 44.0771 73.0013 44.9157 73.8399C45.7543 74.6785 46.8917 75.1496 48.0776 75.1496C49.2636 75.1496 50.4009 74.6785 51.2395 73.8399C52.0781 73.0013 52.5493 71.8639 52.5493 70.678V70.672ZM72.1373 22.6004L12.5075 5.18542C11.8048 4.97937 11.0637 4.94001 10.3431 5.07043C9.62256 5.20086 8.94231 5.49747 8.35642 5.93675C7.77052 6.37603 7.29511 6.94586 6.96793 7.60099C6.64075 8.25612 6.47083 8.97852 6.47164 9.7108V37.8541H10.006V9.71676C10.006 9.40008 10.1318 9.09637 10.3557 8.87245C10.5796 8.64853 10.8833 8.52273 11.2 8.52273C11.315 8.52395 11.4294 8.54001 11.5403 8.5705L71.1761 25.9854C71.419 26.059 71.6321 26.208 71.7846 26.4109C71.937 26.6138 72.0208 26.86 72.0239 27.1138V64.666C72.0239 64.9827 71.8981 65.2864 71.6742 65.5103C71.4502 65.7342 71.1465 65.8601 70.8299 65.8601C70.7148 65.8588 70.6005 65.8428 70.4896 65.8123L56.8896 61.8421V65.5197L69.4985 69.2033C70.2012 69.4094 70.9423 69.4487 71.6628 69.3183C72.3834 69.1879 73.0637 68.8913 73.6496 68.452C74.2355 68.0127 74.7109 67.4429 75.038 66.7877C75.3652 66.1326 75.5351 65.4103 75.5343 64.678V27.1257C75.5334 26.1063 75.2018 25.1146 74.5893 24.2997C73.9767 23.4848 73.1163 22.8906 72.1373 22.6063V22.6004ZM110.131 21.9377C113.216 21.4349 116.337 21.1913 119.463 21.2093C124.239 21.2093 127.785 22.3257 130.018 24.3377C132.084 26.1287 133.313 28.863 133.313 32.2123C133.313 35.5615 132.31 38.3018 130.412 40.26C127.839 42.9944 123.648 44.3914 118.901 44.3914C117.589 44.4343 116.277 44.3221 114.991 44.0571V59.1377H110.131V21.9377ZM114.991 40.075C116.311 40.368 117.663 40.4983 119.015 40.463C124.878 40.463 128.454 37.6153 128.454 32.4212C128.454 27.4481 124.937 25.0481 119.57 25.0481C118.034 25.0065 116.498 25.1367 114.991 25.4362V40.075ZM162.752 45.3765C162.752 55.3765 155.827 59.7347 149.29 59.7347C141.97 59.7347 136.328 54.3615 136.328 45.8242C136.328 36.7795 142.251 31.4959 149.737 31.4959C157.499 31.4959 162.752 37.1377 162.752 45.4004V45.3765ZM141.302 45.6571C141.302 51.5795 144.71 56.0511 149.51 56.0511C154.203 56.0511 157.725 51.6332 157.725 45.5496C157.725 40.9645 155.433 35.1556 149.624 35.1556C143.815 35.1556 141.313 40.5407 141.313 45.681L141.302 45.6571ZM170.519 32.0869L174.101 45.8183C174.884 48.8391 175.612 51.6272 176.113 54.4213H176.281C176.878 51.6869 177.791 48.7794 178.669 45.878L183.104 32.1108H187.236L191.415 45.6272C192.418 48.869 193.206 51.7168 193.803 54.4511H193.97C194.499 51.4924 195.189 48.5647 196.036 45.681L199.893 32.1108H204.752L196.036 59.1436H191.57L187.433 46.2421C186.486 43.3237 185.689 40.3586 185.045 37.3586H184.931C184.289 40.3889 183.47 43.3791 182.478 46.3138L178.119 59.1615H173.648L165.493 32.1287L170.519 32.0869ZM211.851 46.4989C211.964 53.1436 216.209 55.8779 221.122 55.8779C223.689 55.9562 226.242 55.4819 228.609 54.4869L229.445 58.0033C226.599 59.1895 223.535 59.7612 220.454 59.681C212.131 59.681 207.158 54.2063 207.158 46.0511C207.158 37.8959 211.964 31.472 219.839 31.472C228.663 31.472 231.009 39.2332 231.009 44.2063C231.002 44.9733 230.946 45.739 230.842 46.4989H211.851ZM226.263 42.9765C226.316 39.8481 224.979 34.9884 219.445 34.9884C214.478 34.9884 212.281 39.5675 211.904 42.9765H226.263ZM237.099 40.5168C237.099 37.3347 237.045 34.6003 236.878 32.0869H241.176L241.343 37.3944H241.57C242.794 33.7586 245.749 31.472 249.051 31.472C249.522 31.4647 249.992 31.5209 250.448 31.6391V36.272C249.898 36.1547 249.338 36.0986 248.776 36.1048C245.307 36.1048 242.854 38.7317 242.209 42.4212C242.074 43.1763 242 43.9409 241.988 44.7078V59.1198H237.128L237.099 40.5168ZM267.373 21.9735C270.298 21.4412 273.266 21.1874 276.239 21.2153C281.099 21.2153 284.227 22.0571 286.567 23.9556C288.525 25.4063 289.696 27.6392 289.696 30.6003C289.696 34.2302 287.307 37.4183 283.331 38.869V38.9824C286.913 39.872 291.093 42.8332 291.093 48.4212C291.115 49.8301 290.843 51.2282 290.295 52.5264C289.747 53.8246 288.935 54.9944 287.91 55.9615C285.284 58.3496 281.039 59.478 274.896 59.478C272.375 59.498 269.856 59.3484 267.355 59.0302L267.373 21.9735ZM272.233 37.3944H276.645C281.785 37.3944 284.8 34.7078 284.8 31.078C284.8 26.666 281.451 24.9347 276.531 24.9347C275.091 24.8976 273.65 25.0096 272.233 25.269V37.3944ZM272.233 55.4362C273.584 55.6163 274.948 55.6901 276.31 55.657C281.337 55.657 285.976 53.8123 285.976 48.3377C285.976 43.2033 281.558 41.078 276.257 41.078H272.233V55.4362ZM302.507 21.4959V59.1436H297.648V21.4959H302.507Z" fill="#F3C200"/>
</g>
<defs>
<clipPath id="clip0_9_2745">
<rect width="72" height="70" fill="white" transform="translate(4 5)"/>
</clipPath>
</defs>
</svg>
